<svg width="153" height="28" viewBox="0 0 153 28" fill="none" xmlns="http://www.w3.org/2000/svg">
<path d="M8.5957 2.54883C6.97852 3.2168 5.73633 4.21289 4.86914 5.53711C4.00195 6.86133 3.56836 8.48438 3.56836 10.4062C3.56836 11.1562 3.65039 11.7539 3.81445 12.1992C3.86133 12.3516 3.91992 12.4863 3.99023 12.6035C4.03711 12.6855 4.06055 12.7676 4.06055 12.8496C2.75977 12.8496 1.81055 12.5918 1.21289 12.0762C0.544922 11.5137 0.210938 10.6055 0.210938 9.35156C0.210938 8.56641 0.380859 7.79297 0.720703 7.03125C1.06055 6.25781 1.54102 5.51367 2.16211 4.79883C2.74805 4.11914 3.44531 3.48633 4.25391 2.90039C5.07422 2.30273 5.95898 1.78711 6.9082 1.35352C8.90039 0.451172 10.8809 0 12.8496 0C13.3887 0 13.8691 0.0234375 14.291 0.0703125L8.56055 27H3.39258L8.5957 2.54883ZM20.127 27H15.3281V8.17383H16.4883L18.0703 10.002C18.8438 9.29883 19.7168 8.75977 20.6895 8.38477C21.6738 7.99805 22.6992 7.80469 23.7656 7.80469C24.9141 7.80469 25.998 8.02734 27.0176 8.47266C28.0371 8.90625 28.9277 9.50977 29.6895 10.2832C30.4512 11.0449 31.0488 11.9414 31.4824 12.9727C31.9277 13.9922 32.1504 15.082 32.1504 16.2422V27H27.3516V16.2422C27.3516 15.75 27.2578 15.2871 27.0703 14.8535C26.8828 14.4082 26.625 14.0215 26.2969 13.6934C25.9688 13.3652 25.5879 13.1074 25.1543 12.9199C24.7207 12.7324 24.2578 12.6387 23.7656 12.6387C23.2617 12.6387 22.7871 12.7324 22.3418 12.9199C21.8965 13.1074 21.5098 13.3652 21.1816 13.6934C20.8535 14.0215 20.5957 14.4082 20.4082 14.8535C20.2207 15.2871 20.127 15.75 20.127 16.2422V27ZM53.7715 27H52.6113L50.748 24.416C50.291 24.8262 49.8047 25.2129 49.2891 25.5762C48.7852 25.9277 48.252 26.2383 47.6895 26.5078C47.127 26.7656 46.5469 26.9707 45.9492 27.123C45.3633 27.2754 44.7656 27.3516 44.1562 27.3516C42.832 27.3516 41.584 27.1055 40.4121 26.6133C39.252 26.1094 38.2324 25.418 37.3535 24.5391C36.4863 23.6484 35.8008 22.5996 35.2969 21.3926C34.793 20.1738 34.541 18.8496 34.541 17.4199C34.541 16.002 34.793 14.6836 35.2969 13.4648C35.8008 12.2461 36.4863 11.1914 37.3535 10.3008C38.2324 9.41016 39.252 8.71289 40.4121 8.20898C41.584 7.70508 42.832 7.45312 44.1562 7.45312C44.5781 7.45312 45.0117 7.48828 45.457 7.55859C45.9141 7.62891 46.3535 7.74609 46.7754 7.91016C47.209 8.0625 47.6133 8.26758 47.9883 8.52539C48.3633 8.7832 48.6797 9.09961 48.9375 9.47461V0.685547H53.7715V27ZM48.9375 17.4199C48.9375 16.7637 48.8086 16.1309 48.5508 15.5215C48.3047 14.9004 47.9648 14.3555 47.5312 13.8867C47.0977 13.4062 46.5879 13.0254 46.002 12.7441C45.4277 12.4512 44.8125 12.3047 44.1562 12.3047C43.5 12.3047 42.8789 12.4219 42.293 12.6562C41.7188 12.8906 41.2148 13.2305 40.7812 13.6758C40.3594 14.1094 40.0254 14.6426 39.7793 15.2754C39.5332 15.9082 39.4102 16.623 39.4102 17.4199C39.4102 18.1113 39.5332 18.7676 39.7793 19.3887C40.0254 20.0098 40.3594 20.5547 40.7812 21.0234C41.2148 21.4922 41.7188 21.8613 42.293 22.1309C42.8789 22.4004 43.5 22.5352 44.1562 22.5352C44.8125 22.5352 45.4277 22.3945 46.002 22.1133C46.5879 21.8203 47.0977 21.4395 47.5312 20.9707C47.9648 20.4902 48.3047 19.9453 48.5508 19.3359C48.8086 18.7148 48.9375 18.0762 48.9375 17.4199ZM75.6387 17.4199C75.6387 18.8262 75.3867 20.1387 74.8828 21.3574C74.3789 22.5645 73.6934 23.6133 72.8262 24.5039C71.959 25.3828 70.9395 26.0801 69.7676 26.5957C68.6074 27.0996 67.3594 27.3516 66.0234 27.3516C64.6992 27.3516 63.4512 27.0996 62.2793 26.5957C61.1191 26.0801 60.0996 25.3828 59.2207 24.5039C58.3535 23.6133 57.668 22.5645 57.1641 21.3574C56.6602 20.1387 56.4082 18.8262 56.4082 17.4199C56.4082 15.9902 56.6602 14.666 57.1641 13.4473C57.668 12.2285 58.3535 11.1797 59.2207 10.3008C60.0996 9.41016 61.1191 8.71289 62.2793 8.20898C63.4512 7.70508 64.6992 7.45312 66.0234 7.45312C67.3594 7.45312 68.6074 7.69336 69.7676 8.17383C70.9395 8.64258 71.959 9.31641 72.8262 10.1953C73.6934 11.0625 74.3789 12.1113 74.8828 13.3418C75.3867 14.5605 75.6387 15.9199 75.6387 17.4199ZM70.8047 17.4199C70.8047 16.6465 70.6758 15.9492 70.418 15.3281C70.1719 14.6953 69.832 14.1562 69.3984 13.7109C68.9648 13.2539 68.4551 12.9082 67.8691 12.6738C67.2949 12.4277 66.6797 12.3047 66.0234 12.3047C65.3672 12.3047 64.7461 12.4277 64.1602 12.6738C63.5859 12.9082 63.082 13.2539 62.6484 13.7109C62.2266 14.1562 61.8926 14.6953 61.6465 15.3281C61.4004 15.9492 61.2773 16.6465 61.2773 17.4199C61.2773 18.1465 61.4004 18.8203 61.6465 19.4414C61.8926 20.0625 62.2266 20.6016 62.6484 21.0586C63.082 21.5156 63.5859 21.8789 64.1602 22.1484C64.7461 22.4062 65.3672 22.5352 66.0234 22.5352C66.6797 22.5352 67.2949 22.4121 67.8691 22.166C68.4551 21.9199 68.9648 21.5742 69.3984 21.1289C69.832 20.6836 70.1719 20.1445 70.418 19.5117C70.6758 18.8789 70.8047 18.1816 70.8047 17.4199ZM96.4863 17.4199C96.4863 18.8262 96.2344 20.1387 95.7305 21.3574C95.2266 22.5645 94.541 23.6133 93.6738 24.5039C92.8066 25.3828 91.7871 26.0801 90.6152 26.5957C89.4551 27.0996 88.207 27.3516 86.8711 27.3516C85.5469 27.3516 84.2988 27.0996 83.127 26.5957C81.9668 26.0801 80.9473 25.3828 80.0684 24.5039C79.2012 23.6133 78.5156 22.5645 78.0117 21.3574C77.5078 20.1387 77.2559 18.8262 77.2559 17.4199C77.2559 15.9902 77.5078 14.666 78.0117 13.4473C78.5156 12.2285 79.2012 11.1797 80.0684 10.3008C80.9473 9.41016 81.9668 8.71289 83.127 8.20898C84.2988 7.70508 85.5469 7.45312 86.8711 7.45312C88.207 7.45312 89.4551 7.69336 90.6152 8.17383C91.7871 8.64258 92.8066 9.31641 93.6738 10.1953C94.541 11.0625 95.2266 12.1113 95.7305 13.3418C96.2344 14.5605 96.4863 15.9199 96.4863 17.4199ZM91.6523 17.4199C91.6523 16.6465 91.5234 15.9492 91.2656 15.3281C91.0195 14.6953 90.6797 14.1562 90.2461 13.7109C89.8125 13.2539 89.3027 12.9082 88.7168 12.6738C88.1426 12.4277 87.5273 12.3047 86.8711 12.3047C86.2148 12.3047 85.5938 12.4277 85.0078 12.6738C84.4336 12.9082 83.9297 13.2539 83.4961 13.7109C83.0742 14.1562 82.7402 14.6953 82.4941 15.3281C82.248 15.9492 82.125 16.6465 82.125 17.4199C82.125 18.1465 82.248 18.8203 82.4941 19.4414C82.7402 20.0625 83.0742 20.6016 83.4961 21.0586C83.9297 21.5156 84.4336 21.8789 85.0078 22.1484C85.5938 22.4062 86.2148 22.5352 86.8711 22.5352C87.5273 22.5352 88.1426 22.4121 88.7168 22.166C89.3027 21.9199 89.8125 21.5742 90.2461 21.1289C90.6797 20.6836 91.0195 20.1445 91.2656 19.5117C91.5234 18.8789 91.6523 18.1816 91.6523 17.4199ZM103.939 27H99.1406V8.17383H100.301L101.883 10.4062C102.656 9.70312 103.535 9.16406 104.52 8.78906C105.504 8.40234 106.523 8.20898 107.578 8.20898H111.814V12.9902H107.578C107.074 12.9902 106.6 13.084 106.154 13.2715C105.709 13.459 105.322 13.7168 104.994 14.0449C104.666 14.373 104.408 14.7598 104.221 15.2051C104.033 15.6504 103.939 16.125 103.939 16.6289V27ZM131.836 27H114.557V1.79297H131.836V6.83789H119.602V11.8828H127.881V16.9277H119.602V21.9551H131.836V27ZM152.191 27H146.32L142.576 21.2344L138.797 27H132.926L139.799 17.3496L132.926 8.06836H138.797L142.576 13.4648L146.32 8.06836H152.191L145.301 17.3496L152.191 27Z" fill="url(#paint0_linear)"/>
<defs>
<linearGradient id="paint0_linear" x1="-9.34556e-07" y1="16" x2="159" y2="16" gradientUnits="userSpaceOnUse">
<stop stop-color="#1D976C"/>
<stop offset="0.807292" stop-color="#A9E2BE"/>
<stop offset="1" stop-color="#A9E2BE"/>
</linearGradient>
</defs>
</svg>
